# xmcd CD database file
#
# Track frame offsets:
#	150
#	22267
#	42520
#	57835
#	71742
#	100210
#	126715
#	155165
#	175187
#	189302
#	208487
#	230545
#	262260
#	274465
#
# Disc length: 3943 seconds
#
# Revision: 2
# Processed by: cddbd v1.5.1PL0 Copyright (c) Steve Scherf et al.
# Submitted via: CDex 1.51
#
DISCID=e90f650e
DTITLE=Wynton Marsalis - Marsalis Plays Monk - Standard Time Vol. 4
DYEAR=1999
DGENRE=Jazz
TTITLE0=Thelonious
TTITLE1=Evidence
TTITLE2=We See
TTITLE3=Monk's Mood
TTITLE4=Worry Later
TTITLE5=Four In One
TTITLE6=Reflections
TTITLE7=In Walked Monk
TTITLE8=Hackensack
TTITLE9=Let's Cool One
TTITLE10=Brilliant Corners
TTITLE11=Brake's Sake
TTITLE12=Ugly Beauty
TTITLE13=Green Chimneys
EXTD=YEAR: 1999
EXTT0=
EXTT1=
EXTT2=
EXTT3=
EXTT4=
EXTT5=
EXTT6=
EXTT7=
EXTT8=
EXTT9=
EXTT10=
EXTT11=
EXTT12=
EXTT13=
PLAYORDER=
